<svg xmlns="http://www.w3.org/2000/svg" id="Layer_1" width="755.1916" height="290.0399" viewBox="0 0 755.1916 290.0399"><polygon points="115.1115 41.9468 73.2618 17.9929 72.4427 65.0285 25.7466 60.2586 44.9305 103.0186 .4559 118.3131 35.7746 149.6129 1.9328 182.2685 48.2194 195.6066 33.6739 240.3252 79.3451 230.8934 85.0572 277.5662 122.2304 249.5171 147.137 289.402 170.1763 248.4668 210.4686 272.6965 211.4234 226.2317 258.0792 231.9777 239.8332 188.6703 284.2801 173.3779 248.6814 142.0569 283.0516 110.0145 237.0302 96.4875 253.8715 52.6177 206.9972 60.301 202.9019 13.4882 164.5873 41.1554 140.3915 .8779 116.3231 41.2742 115.1115 41.9468" style="fill:#d92231; stroke-width:0px;"></polygon><path d="M142.3689,46.0161c-54.6553,0-99.1234,44.4639-99.1234,99.1234s44.4681,99.1255,99.1234,99.1255,99.1234-44.4703,99.1234-99.1255-44.4681-99.1234-99.1234-99.1234" style="fill:#231f20; stroke-width:0px;"></path><polygon points="157.5155 66.3032 142.3674 48.0932 127.2236 66.3032 127.2236 86.3613 157.5155 86.3613 157.5155 66.3032" style="fill:#006a65; stroke-width:0px;"></polygon><polygon points="142.3693 81.3594 132.8145 64.8045 151.9241 64.8045 142.3693 81.3594" style="fill:#ffd659; stroke-width:0px;"></polygon><polygon points="116.068 69.2918 93.8499 61.095 89.8353 84.4399 89.8353 84.4357 99.8633 101.8096 126.096 86.6594 116.068 69.2918" style="fill:#006a65; stroke-width:0px;"></polygon><polygon points="110.4797 89.9042 93.9248 80.3494 110.4797 70.7903 110.4797 89.9042" style="fill:#ffd659; stroke-width:0px;"></polygon><polygon points="81.6684 92.6044 58.3299 96.619 66.5246 118.8372 83.8942 128.8673 99.036 102.6324 81.6684 92.6044" style="fill:#006a65; stroke-width:0px;"></polygon><polygon points="87.135 113.2488 68.0211 113.2488 77.5802 96.7003 87.135 113.2488" style="fill:#ffd659; stroke-width:0px;"></polygon><polygon points="63.5336 129.9934 45.3236 145.1414 63.5336 160.2853 83.5917 160.2853 83.5917 129.9934 63.5336 129.9934" style="fill:#006a65; stroke-width:0px;"></polygon><polygon points="78.5902 145.1389 62.0353 154.6937 62.0353 135.5841 78.5902 145.1389" style="fill:#ffd659; stroke-width:0px;"></polygon><polygon points="66.5229 171.4402 58.3261 193.6584 81.6667 197.6729 99.0406 187.6449 83.8904 161.4122 66.5229 171.4402" style="fill:#006a65; stroke-width:0px;"></polygon><polygon points="87.135 177.0286 77.5802 193.5771 68.0211 177.0286 87.135 177.0286" style="fill:#ffd659; stroke-width:0px;"></polygon><polygon points="89.8347 205.8411 93.8492 229.1796 116.0674 220.9849 126.0975 203.6152 99.8626 188.4735 89.8347 205.8411" style="fill:#006a65; stroke-width:0px;"></polygon><polygon points="110.4797 200.3734 110.4797 219.4872 93.9248 209.9325 110.4797 200.3734" style="fill:#ffd659; stroke-width:0px;"></polygon><polygon points="127.2236 223.9753 142.3674 242.1852 157.5155 223.9753 157.5155 203.9172 127.2236 203.9172 127.2236 223.9753" style="fill:#006a65; stroke-width:0px;"></polygon><polygon points="142.3693 208.9187 151.9241 225.4672 132.8145 225.4672 142.3693 208.9187" style="fill:#ffd659; stroke-width:0px;"></polygon><polygon points="168.6706 220.9849 190.8887 229.1817 194.9034 205.8411 184.8754 188.4671 158.6426 203.6173 168.6706 220.9849" style="fill:#006a65; stroke-width:0px;"></polygon><polygon points="174.2594 200.3734 190.8079 209.9325 174.2594 219.4872 174.2594 200.3734" style="fill:#ffd659; stroke-width:0px;"></polygon><polygon points="203.0707 197.674 226.4091 193.6594 218.2187 171.4412 218.2145 171.4412 200.8448 161.4111 185.7031 187.646 203.0707 197.674" style="fill:#006a65; stroke-width:0px;"></polygon><polygon points="197.6032 177.0286 216.7171 177.0286 207.1623 193.5771 197.6032 177.0286" style="fill:#ffd659; stroke-width:0px;"></polygon><polygon points="221.2051 160.2846 239.415 145.1365 221.2051 129.9927 201.147 129.9927 201.147 160.2846 221.2051 160.2846" style="fill:#006a65; stroke-width:0px;"></polygon><polygon points="206.1484 145.1389 222.6969 135.5841 222.6969 154.6937 206.1484 145.1389" style="fill:#ffd659; stroke-width:0px;"></polygon><polygon points="218.217 118.8378 226.4075 96.6197 203.0689 92.6051 185.6993 102.6331 200.8495 128.8659 218.217 118.8378" style="fill:#006a65; stroke-width:0px;"></polygon><polygon points="197.6032 113.2495 207.1623 96.6946 216.7171 113.2495 197.6032 113.2495" style="fill:#ffd659; stroke-width:0px;"></polygon><polygon points="194.9044 84.438 190.8898 61.0995 168.6716 69.2899 168.6716 69.2942 158.6416 86.6639 184.8764 101.8055 194.9044 84.438" style="fill:#006a65; stroke-width:0px;"></polygon><polygon points="174.2594 89.9042 174.2594 70.7903 190.8079 80.3494 174.2594 89.9042" style="fill:#ffd659; stroke-width:0px;"></polygon><path d="M81.219,145.1378c0-33.7717,27.3765-61.1482,61.1546-61.1482s61.1482,27.3765,61.1482,61.1482-27.3765,61.1546-61.1482,61.1546-61.1546-27.3829-61.1546-61.1546" style="fill:#5e3300; stroke-width:0px;"></path><polygon points="173.0194 198.2259 152.2675 182.0869 142.3668 206.4397 132.4682 182.0869 111.7205 198.2259 115.3192 172.1862 89.2817 175.7913 105.4207 155.0394 81.0679 145.1387 105.4207 135.2402 89.2817 114.4882 115.3192 118.0933 111.7205 92.0536 132.4682 108.1926 142.3668 83.8399 152.2717 108.1926 173.0194 92.0536 169.4143 118.0933 195.4582 114.4882 179.3129 135.2402 203.672 145.1387 179.3129 155.0394 195.4582 175.7913 169.4143 172.1862 173.0194 198.2259" style="fill:#ffd659; stroke-width:0px;"></polygon><path d="M111.8205,145.1378c0-16.8731,13.6776-30.5508,30.5508-30.5508s30.5486,13.6776,30.5486,30.5508-13.6776,30.5508-30.5486,30.5508-30.5508-13.6776-30.5508-30.5508" style="fill:#d92231; stroke-width:0px;"></path><path d="M321.8198,19.9751c10.3524,0,19.3683,1.1127,27.6061,7.2339,9.0159,6.7904,14.2481,17.5884,14.2481,29.9446s-5.1203,23.0402-14.9163,29.9425c-8.6823,6.1232-16.8082,7.124-27.1606,7.124h-15.3608V19.9751h15.5836ZM317.5906,83.534h4.8975c5.5658,0,13.2462-.4455,19.7019-5.2322,5.1203-3.8956,10.1297-11.0197,10.1297-21.1483,0-9.7971-4.6748-17.4765-10.0178-21.3721-6.4568-4.6768-14.36-5.1203-19.8138-5.1203h-4.8975v52.8728Z" style="fill:#231f20; stroke-width:0px;"></path><path d="M383.8142,19.9751v74.2449h-11.3553V19.9751h11.3553Z" style="fill:#231f20; stroke-width:0px;"></path><path d="M428.1125,36.4487c-.6672-1.6701-1.6681-3.2284-3.3382-4.6748-2.3374-1.8919-4.7867-2.671-8.0151-2.671-6.9002,0-10.4623,4.1173-10.4623,8.904,0,2.2255.7791,6.1232,8.013,9.0159l7.4597,3.0067c13.6907,5.5658,17.4744,13.357,17.4744,21.8176,0,14.1362-10.0167,23.8193-23.9312,23.8193-8.5725,0-13.6927-3.2284-17.4765-7.4576-4.0075-4.453-5.7875-9.3495-6.233-14.4698l11.2414-2.4493c0,3.6739,1.3365,7.124,3.1165,9.4614,2.1157,2.671,5.2322,4.453,9.6852,4.453,6.9023,0,12.2443-5.0104,12.2443-12.4681,0-7.5695-5.7875-10.686-10.686-12.6898l-7.124-3.0046c-6.1211-2.5612-15.1391-7.6814-15.1391-18.813,0-10.0167,7.7933-19.59,21.7057-19.59,8.0151,0,12.58,3.0046,14.9174,5.0084,2.0038,1.782,4.1173,4.3411,5.6756,7.4576l-9.1278,5.3441Z" style="fill:#231f20; stroke-width:0px;"></path><path d="M491.6672,76.2981h-31.7245l-8.1249,17.922h-12.2443l36.9567-78.5861,35.1746,78.5861h-12.2443l-7.7933-17.922ZM487.1044,65.612l-11.0197-25.1558-11.4652,25.1558h22.4848Z" style="fill:#231f20; stroke-width:0px;"></path><path d="M526.8336,19.9751c9.5733,0,15.5846,1.2226,20.4811,5.7875,4.0075,3.7837,5.8994,8.5704,5.8994,14.6936,0,2.8948-.4434,5.8994-2.2255,8.7942-1.6701,2.8927-3.8956,4.3411-5.5658,5.1203,1.3365.3336,5.8994,1.5583,9.5733,5.342,4.0075,4.2292,4.8985,9.3516,4.8985,13.9144,0,5.3441-1.3365,9.5733-4.8985,13.357-5.8994,6.2351-15.1391,7.2359-20.8147,7.2359h-18.5913V19.9751h11.2435ZM526.9455,51.9214h3.4501c2.7829,0,6.5666-.3336,9.2397-2.8948,2.5591-2.4493,2.8927-5.8994,2.8927-8.4585,0-2.2276-.3336-4.8985-2.671-7.124-2.5591-2.4493-5.7875-2.7829-9.0159-2.7829h-3.8956v21.2602ZM526.9455,83.534h6.9002c3.2284,0,8.3487-.5574,11.2434-2.8948,2.2255-1.78,3.6739-4.8965,3.6739-8.2368,0-3.0046-1.1127-5.8994-3.0067-7.7913-3.1165-3.0067-7.6794-3.3403-11.6869-3.3403h-7.124v22.2631Z" style="fill:#231f20; stroke-width:0px;"></path><path d="M580.0338,19.9751v74.2449h-11.3553V19.9751h11.3553Z" style="fill:#231f20; stroke-width:0px;"></path><path d="M603.6293,19.9751v63.5589h21.8176v10.686h-33.1709V19.9751h11.3533Z" style="fill:#231f20; stroke-width:0px;"></path><path d="M641.9163,19.9751v74.2449h-11.3553V19.9751h11.3553Z" style="fill:#231f20; stroke-width:0px;"></path><path d="M674.7494,30.6612v63.5589h-11.3533V30.6612h-17.031v-10.686h45.4152v10.686h-17.031Z" style="fill:#231f20; stroke-width:0px;"></path><path d="M714.1492,62.1619l-24.3767-42.1868h12.9115l17.1428,29.7187,17.1428-29.7187h12.9115l-24.3767,42.1868v32.0581h-11.3553v-32.0581Z" style="fill:#231f20; stroke-width:0px;"></path><path d="M319.4824,103.4494c9.0159,0,14.8044,1.1127,19.5911,4.3411,8.1259,5.4539,8.7942,14.2481,8.7942,17.4744,0,10.686-6.5677,18.4794-16.4746,20.7049l23.1531,31.7245h-13.6917l-21.2602-30.388h-2.0038v30.388h-11.3543v-74.2449h13.2462ZM317.5906,137.5113h3.562c3.1165,0,15.8063-.3357,15.8063-12.1345,0-10.4623-9.9069-11.4652-15.4727-11.4652h-3.8956v23.5996Z" style="fill:#231f20; stroke-width:0px;"></path><path d="M371.4601,103.4494v74.2449h-11.3543v-74.2449h11.3543Z" style="fill:#231f20; stroke-width:0px;"></path><path d="M422.1033,139.0695h30.6118v.5553c0,12.6898-3.7837,23.0422-11.0197,30.0544-7.6814,7.4576-16.8092,9.4614-25.2677,9.4614-10.7979,0-18.4773-3.1165-25.2677-10.1286-7.2359-7.4576-11.0217-17.3646-11.0217-28.0506,0-11.5771,4.6768-21.5959,10.7979-27.717,6.3449-6.4568,16.4756-11.1316,27.9408-11.1316,6.6785,0,13.5788,1.4464,19.3683,4.6748,6.1211,3.4501,9.9069,7.7913,12.0205,11.1316l-9.0159,6.3449c-2.2255-3.1165-5.5658-6.4568-9.1278-8.4606-4.1173-2.4472-8.5704-3.2263-13.1353-3.2263-9.6831,0-15.9161,4.0055-19.59,7.6794-4.8985,4.8985-7.9032,12.8017-7.9032,20.8168,0,7.4576,2.7829,14.9153,7.6794,20.1475,5.1203,5.4539,11.4652,7.4576,18.5892,7.4576,6.4568,0,11.8009-1.8919,16.5875-6.5687,4.1173-4.0055,5.7875-8.3487,6.233-12.5779h-18.4794v-10.4623Z" style="fill:#231f20; stroke-width:0px;"></path><path d="M472.8542,132.8344h31.8343v-29.3851h11.3553v74.2449h-11.3553v-34.1738h-31.8343v34.1738h-11.3553v-74.2449h11.3553v29.3851Z" style="fill:#231f20; stroke-width:0px;"></path><path d="M548.8708,114.1354v63.5589h-11.3533v-63.5589h-17.031v-10.686h45.4152v10.686h-17.031Z" style="fill:#231f20; stroke-width:0px;"></path><path d="M602.5207,119.9229c-.6693-1.6701-1.6701-3.2284-3.3403-4.6748-2.3374-1.8919-4.7867-2.671-8.0151-2.671-6.9002,0-10.4623,4.1173-10.4623,8.904,0,2.2255.7791,6.1232,8.013,9.0159l7.4597,3.0067c13.6907,5.5658,17.4744,13.357,17.4744,21.8176,0,14.1362-10.0167,23.8193-23.9312,23.8193-8.5704,0-13.6927-3.2284-17.4765-7.4576-4.0075-4.453-5.7875-9.3495-6.233-14.4698l11.2414-2.4493c0,3.6739,1.3365,7.124,3.1165,9.4614,2.1157,2.671,5.2322,4.453,9.6852,4.453,6.9023,0,12.2443-5.0104,12.2443-12.4681,0-7.5695-5.7875-10.686-10.686-12.6898l-7.124-3.0046c-6.1211-2.5612-15.1391-7.6814-15.1391-18.813,0-10.0167,7.7933-19.59,21.7057-19.59,8.0151,0,12.58,3.0046,14.9174,5.0084,2.0038,1.782,4.1173,4.3411,5.6756,7.4576l-9.1257,5.3441Z" style="fill:#231f20; stroke-width:0px;"></path><path d="M349.8704,243.2486h-31.7235l-8.1259,17.922h-12.2443l36.9557-78.5861,35.1746,78.5861h-12.2443l-7.7923-17.922ZM345.3076,232.5626l-11.0207-25.1558-11.4652,25.1558h22.4859Z" style="fill:#231f20; stroke-width:0px;"></path><path d="M387.0426,186.9257c9.0159,0,14.8034,1.1127,19.59,4.3411,8.1269,5.4539,8.7942,14.2481,8.7942,17.4744,0,10.686-6.5687,18.4794-16.4756,20.7049l23.1541,31.7245h-13.6907l-21.2623-30.388h-2.0038v30.388h-11.3533v-74.2449h13.2472ZM385.1487,220.9876h3.562c3.1165,0,15.8063-.3357,15.8063-12.1345,0-10.4623-9.9069-11.4652-15.4727-11.4652h-3.8956v23.5996Z" style="fill:#231f20; stroke-width:0px;"></path><path d="M439.0182,186.9257v74.2449h-11.3533v-74.2449h11.3533Z" style="fill:#231f20; stroke-width:0px;"></path><path d="M464.172,250.4846h35.6202v10.686h-54.0975l36.5091-63.5589h-30.4999v-10.686h48.9793l-36.5112,63.5589Z" style="fill:#231f20; stroke-width:0px;"></path><path d="M577.7026,224.1041c0,21.8176-16.3616,38.5129-38.6248,38.5129s-38.6268-16.6953-38.6268-38.5129,16.3637-38.5149,38.6268-38.5149,38.6248,16.6973,38.6248,38.5149ZM566.3494,224.1041c0-16.4756-11.3533-28.0506-27.2715-28.0506s-27.2715,11.575-27.2715,28.0506,11.3533,28.0506,27.2715,28.0506,27.2715-11.5771,27.2715-28.0506Z" style="fill:#231f20; stroke-width:0px;"></path><path d="M586.3787,261.1706v-79.2554l53.8737,56.4369v-51.4265h11.3553v78.8078l-53.8757-56.4348v51.872h-11.3533Z" style="fill:#231f20; stroke-width:0px;"></path><path d="M707.5867,243.2486h-31.7245l-8.1249,17.922h-12.2443l36.9546-78.5861,35.1767,78.5861h-12.2443l-7.7933-17.922ZM703.0238,232.5626l-11.0197-25.1558-11.4652,25.1558h22.4848Z" style="fill:#231f20; stroke-width:0px;"></path></svg>